<?xml version="1.0" encoding="UTF-8"?>
<svg id="Layer_2" data-name="Layer 2" xmlns="http://www.w3.org/2000/svg" xmlns:xlink="http://www.w3.org/1999/xlink" viewBox="0 0 116.56 33.38">
  <defs>
    <style>
      .cls-1 {
        fill: url(#linear-gradient);
      }

      .cls-1, .cls-2, .cls-3, .cls-4 {
        stroke-width: 0px;
      }

      .cls-2 {
        fill: url(#linear-gradient-2);
      }

      .cls-3 {
        fill: #0d1724;
      }

      .cls-4 {
        fill: #e8e8e8;
      }
    </style>
    <linearGradient id="linear-gradient" x1="17.38" y1="18.63" x2="116.56" y2="18.63" gradientUnits="userSpaceOnUse">
      <stop offset="0" stop-color="#0a1623"/>
      <stop offset="1" stop-color="#ffcd70"/>
    </linearGradient>
    <linearGradient id="linear-gradient-2" x1="0" y1="16.69" x2="36.86" y2="16.69" gradientUnits="userSpaceOnUse">
      <stop offset="0" stop-color="#f78f2c"/>
      <stop offset="1" stop-color="#ffcd70"/>
    </linearGradient>
  </defs>
  <g id="Layer_1-2" data-name="Layer 1">
    <g>
      <g>
        <path class="cls-1" d="m111.29,7.79c1.82,0,3.3,1.53,3.3,3.42l-2.9,14.85c0,1.89-1.48,3.42-3.3,3.42H22.65c-1.82,0-3.3-1.53-3.3-3.42v-14.85c0-1.89,1.48-3.42,3.3-3.42h88.64m0-1.97H22.65c-2.9,0-5.27,2.42-5.27,5.38v14.85c0,2.97,2.36,5.38,5.27,5.38h85.74c2.84,0,5.16-2.3,5.26-5.17l2.87-14.69.04-.19v-.19c0-2.97-2.36-5.38-5.27-5.38h0Z"/>
        <g>
          <path class="cls-3" d="m5.74,26.62h25.38v4.76H5.74v-4.76Zm28.55-14.27h-4.76l-1.59,3.17h-3.17l-1.59-7.93-4.76-4.76-4.75,4.76-1.59,7.93h-3.17l-1.59-3.17H2.56l2.39,9.51h-.8v3.17h28.55v-3.17h-.79l2.38-9.51Zm-15.87,0l1.59,3.17-1.59,3.17-1.58-3.17,1.58-3.17Z"/>
          <path class="cls-2" d="m18.42,2.83l4.76,4.76,1.59,7.93h3.17l1.59-3.17h4.76l-2.38,9.51h.79v3.17H4.15v-3.17h.8l-2.39-9.51h4.76l1.59,3.17h3.17l1.59-7.93,4.75-4.76m0,15.86l1.59-3.17-1.59-3.17-1.58,3.17,1.58,3.17m12.69,7.93v4.76H5.74v-4.76h25.38M18.42,0l-1.41,1.42-4.75,4.76-.43.43-.12.59-1.27,6.32h-.3l-1.04-2.07-.55-1.1H0l.63,2.49,1.76,7.02h-.24v7.17h1.59v6.35h29.38v-6.35h1.59v-7.17h-.23l1.76-7.02.62-2.49h-8.56l-.55,1.1-1.04,2.07h-.3l-1.27-6.32-.12-.59-.43-.43-4.76-4.76-1.42-1.42h0Z"/>
        </g>
      </g>
      <g>
        <text
          class="cls-4"
          x="39.5"
          y="23.6"
          font-family="system-ui, -apple-system, 'Segoe UI', Roboto, Arial, sans-serif"
          font-weight="800"
          font-size="13"
          font-style="italic"
          letter-spacing="0.8"
        >HEXTECH</text>
      </g>
    </g>
  </g>
</svg>